<svg width="22" height="22" viewBox="0 0 22 22" fill="none" xmlns="http://www.w3.org/2000/svg">
<path d="M21.9968 14.2832C21.994 13.6237 21.7713 12.98 21.3574 12.4355C20.9435 11.891 20.3574 11.4706 19.6749 11.2288L21.9601 3.53785C22.0078 3.37405 22.0128 3.20255 21.9747 3.03674C21.9365 2.87093 21.8562 2.71529 21.7401 2.58197C21.6214 2.45706 21.4731 2.35766 21.306 2.29111C21.1389 2.22456 20.9574 2.19255 20.7747 2.19742H4.03274L3.62946 0.813054C3.55935 0.578931 3.40507 0.372236 3.19066 0.225174C2.97625 0.078113 2.71376 -0.00105352 2.44408 1.05887e-05H0V2.19742H1.50311L4.53377 12.3715C4.60539 12.6111 4.76516 12.822 4.98706 12.9696C5.20896 13.1173 5.47993 13.193 5.75582 13.1845H18.3306C18.6547 13.1845 18.9656 13.3003 19.1947 13.5063C19.4239 13.7123 19.5527 13.9918 19.5527 14.2832C19.5527 14.5746 19.4239 14.8541 19.1947 15.0601C18.9656 15.2662 18.6547 15.3819 18.3306 15.3819H2.44408C2.11998 15.3819 1.80915 15.4977 1.57997 15.7037C1.35079 15.9098 1.22204 16.1892 1.22204 16.4806C1.22204 16.772 1.35079 17.0515 1.57997 17.2575C1.80915 17.4636 2.11998 17.5793 2.44408 17.5793H3.88609C3.68511 18.0772 3.62053 18.6113 3.69781 19.1363C3.7751 19.6614 3.99198 20.162 4.33008 20.5957C4.66819 21.0294 5.11756 21.3835 5.64015 21.6279C6.16274 21.8724 6.74316 22 7.33225 22C7.92134 22 8.50176 21.8724 9.02435 21.6279C9.54694 21.3835 9.99631 21.0294 10.3344 20.5957C10.6725 20.162 10.8894 19.6614 10.9667 19.1363C11.044 18.6113 10.9794 18.0772 10.7784 17.5793H13.6624C13.4795 18.0327 13.4094 18.5166 13.4571 18.9969C13.5048 19.4772 13.6692 19.9423 13.9387 20.3593C14.2081 20.7763 14.576 21.1351 15.0165 21.4103C15.457 21.6855 15.9592 21.8705 16.4879 21.9521C17.0165 22.0338 17.5586 22.0102 18.076 21.8829C18.5934 21.7557 19.0734 21.5279 19.4822 21.2157C19.891 20.9035 20.2186 20.5144 20.442 20.0759C20.6653 19.6375 20.7789 19.1603 20.7747 18.678C20.7724 18.1104 20.6038 17.5533 20.2859 17.0629C20.8085 16.7667 21.2393 16.3566 21.5384 15.8706C21.8375 15.3847 21.9952 14.8386 21.9968 14.2832ZM17.2186 10.9871H6.72123L4.69264 4.39484H19.1861L17.2186 10.9871ZM7.33225 19.7767C7.09055 19.7767 6.85428 19.7123 6.65332 19.5916C6.45236 19.4708 6.29572 19.2993 6.20323 19.0985C6.11074 18.8977 6.08654 18.6768 6.13369 18.4637C6.18084 18.2506 6.29723 18.0548 6.46814 17.9011C6.63904 17.7475 6.85679 17.6428 7.09384 17.6004C7.33089 17.558 7.57661 17.5798 7.79991 17.663C8.0232 17.7461 8.21406 17.8869 8.34834 18.0676C8.48262 18.2483 8.55429 18.4607 8.55429 18.678C8.55429 18.9694 8.42554 19.2489 8.19636 19.4549C7.96719 19.661 7.65636 19.7767 7.33225 19.7767ZM17.1086 19.7767C16.8669 19.7767 16.6306 19.7123 16.4297 19.5916C16.2287 19.4708 16.0721 19.2993 15.9796 19.0985C15.8871 18.8977 15.8629 18.6768 15.91 18.4637C15.9572 18.2506 16.0736 18.0548 16.2445 17.9011C16.4154 17.7475 16.6331 17.6428 16.8702 17.6004C17.1072 17.558 17.3529 17.5798 17.5762 17.663C17.7995 17.7461 17.9904 17.8869 18.1247 18.0676C18.259 18.2483 18.3306 18.4607 18.3306 18.678C18.3306 18.9694 18.2019 19.2489 17.9727 19.4549C17.7435 19.661 17.4327 19.7767 17.1086 19.7767Z" fill="white"/>
</svg>
